<svg width="1584" height="396" viewBox="0 0 1584 396" fill="none" xmlns="http://www.w3.org/2000/svg">
<rect width="1584" height="396" fill="#F5F5F5"/>
<g id="Awesome banner" clip-path="url(#clip0_0_1)">
<rect width="1584" height="396" fill="url(#paint0_linear_0_1)"/>
<ellipse id="Ellipse 2" cx="323" cy="64" rx="285" ry="288" fill="url(#paint1_linear_0_1)" fill-opacity="0.1"/>
<g id="copyright">
<path d="M75.95 334.52L72.30 334.52L72.30 311.16L77.20 311.16L83.70 330.04Q83.60 329.02 83.50 327.62Q83.41 326.23 83.33 324.79Q83.25 323.35 83.25 322.23L83.25 311.16L86.90 311.16L86.90 334.52L82 334.52L75.57 315.64Q75.63 316.57 75.73 317.88Q75.82 319.19 75.89 320.57Q75.95 321.94 75.95 323.10L75.95 334.52M98.80 334.84Q96.46 334.84 94.67 333.96Q92.88 333.08 91.89 331.53Q90.90 329.98 90.90 327.93Q90.90 325.78 92.13 324.18Q93.36 322.58 95.34 322.17L95.34 322.10Q93.65 321.75 92.61 320.38Q91.57 319 91.57 317.11Q91.57 315.26 92.48 313.85Q93.39 312.44 95.02 311.64Q96.66 310.84 98.80 310.84Q100.94 310.84 102.59 311.64Q104.24 312.44 105.15 313.85Q106.06 315.26 106.06 317.11Q106.06 319 105.01 320.38Q103.95 321.75 102.26 322.10L102.26 322.17Q104.24 322.58 105.47 324.18Q106.70 325.78 106.70 327.93Q106.70 329.98 105.71 331.53Q104.72 333.08 102.93 333.96Q101.14 334.84 98.80 334.84M98.80 320.73Q100.30 320.73 101.23 319.82Q102.16 318.90 102.16 317.46Q102.16 315.99 101.23 315.08Q100.30 314.17 98.80 314.17Q97.30 314.17 96.37 315.08Q95.44 315.99 95.44 317.46Q95.44 318.90 96.37 319.82Q97.30 320.73 98.80 320.73M98.80 331.45Q100.56 331.45 101.68 330.42Q102.80 329.40 102.80 327.74Q102.80 326.04 101.68 325Q100.56 323.96 98.80 323.96Q97.04 323.96 95.92 325Q94.80 326.04 94.80 327.74Q94.80 329.40 95.92 330.42Q97.04 331.45 98.80 331.45M114.35 334.52L110.70 334.52L110.70 311.16L115.60 311.16L122.10 330.04Q122 329.02 121.90 327.62Q121.81 326.23 121.73 324.79Q121.65 323.35 121.65 322.23L121.65 311.16L125.30 311.16L125.30 334.52L120.40 334.52L113.97 315.64Q114.03 316.57 114.13 317.88Q114.22 319.19 114.29 320.57Q114.35 321.94 114.35 323.10" fill="white" fill-opacity="0.9"/>
<path d="M161.48 325.24L151.24 325.24L151.24 322.68L161.48 322.68" fill="white" fill-opacity="0.9"/>
<path d="M195.02 334.84Q191.82 334.84 189.96 333.05Q188.11 331.26 188.11 328.12L188.11 317.56Q188.11 314.42 189.96 312.63Q191.82 310.84 195.02 310.84Q198.15 310.84 200.01 312.65Q201.87 314.46 201.87 317.56L198.99 317.56Q198.99 315.58 197.95 314.50Q196.91 313.43 195.02 313.43Q193.13 313.43 192.06 314.50Q190.99 315.58 190.99 317.56L190.99 328.12Q190.99 330.10 192.06 331.18Q193.13 332.25 195.02 332.25Q196.91 332.25 197.95 331.18Q198.99 330.10 198.99 328.12L201.87 328.12Q201.87 331.22 200.01 333.03Q198.15 334.84 195.02 334.84" fill="white" fill-opacity="0.9"/>
<path d="M213.96 334.84Q210.83 334.84 209 333.02Q207.18 331.19 207.18 327.80L207.18 317.88Q207.18 314.49 209 312.66Q210.83 310.84 213.96 310.84Q217.10 310.84 218.92 312.66Q220.75 314.49 220.75 317.85L220.75 327.80Q220.75 331.19 218.92 333.02Q217.10 334.84 213.96 334.84M213.96 332.25Q215.85 332.25 216.86 331.18Q217.87 330.10 217.87 328.12L217.87 317.56Q217.87 315.58 216.86 314.50Q215.85 313.43 213.96 313.43Q212.11 313.43 211.08 314.50Q210.06 315.58 210.06 317.56L210.06 328.12Q210.06 330.10 211.08 331.18Q212.11 332.25 213.96 332.25" fill="white" fill-opacity="0.9"/>
<path d="M228.65 334.52L225.87 334.52L225.87 311.16L230.12 311.16L233.10 321.27L236.20 311.16L240.46 311.16L240.46 334.52L237.67 334.52L237.67 323.48Q237.67 321.91 237.72 319.88Q237.77 317.85 237.87 315.77Q237.96 313.69 238.09 312.02L234.31 324.09L231.82 324.09L228.20 312.31Q228.46 314.68 228.55 317.50Q228.65 320.31 228.65 323.48" fill="white" fill-opacity="0.9"/>
<path d="M247.85 334.52L245.07 334.52L245.07 311.16L249.32 311.16L252.30 321.27L255.40 311.16L259.66 311.16L259.66 334.52L256.87 334.52L256.87 323.48Q256.87 321.91 256.92 319.88Q256.97 317.85 257.07 315.77Q257.16 313.69 257.29 312.02L253.51 324.09L251.02 324.09L247.40 312.31Q247.66 314.68 247.75 317.50Q247.85 320.31 247.85 323.48" fill="white" fill-opacity="0.9"/>
<path d="M271.56 334.84Q268.30 334.84 266.57 333.03Q264.84 331.22 264.84 328.12L264.84 311.16L267.72 311.16L267.72 328.12Q267.72 330.04 268.67 331.16Q269.61 332.28 271.56 332.28Q273.48 332.28 274.44 331.16Q275.40 330.04 275.40 328.12L275.40 311.16L278.28 311.16L278.28 328.12Q278.28 331.26 276.57 333.05Q274.86 334.84 271.56 334.84" fill="white" fill-opacity="0.9"/>
<path d="M286.83 334.52L284.04 334.52L284.04 311.16L287.88 311.16L295.02 331.16Q294.95 330.36 294.87 329.19Q294.79 328.02 294.75 326.73Q294.70 325.43 294.70 324.28L294.70 311.16L297.48 311.16L297.48 334.52L293.64 334.52L286.54 314.52Q286.60 315.29 286.67 316.46Q286.73 317.62 286.78 318.92Q286.83 320.22 286.83 321.40" fill="white" fill-opacity="0.9"/>
<path d="M316.20 334.52L303.72 334.52L303.72 331.90L308.49 331.90L308.49 313.78L303.72 313.78L303.72 311.16L316.20 311.16L316.20 313.78L311.43 313.78L311.43 331.90L316.20 331.90" fill="white" fill-opacity="0.9"/>
<path d="M330.60 334.52L327.72 334.52L327.72 313.78L321.32 313.78L321.32 311.16L337 311.16L337 313.78L330.60 313.78" fill="white" fill-opacity="0.9"/>
<path d="M349.80 334.52L346.92 334.52L346.92 325.78L339.88 311.16L342.95 311.16L347.50 320.76Q347.88 321.56 348.11 322.12Q348.33 322.68 348.39 322.94Q348.46 322.68 348.70 322.12Q348.94 321.56 349.32 320.76L353.87 311.16L356.84 311.16L349.80 325.78" fill="white" fill-opacity="0.9"/>
<path d="M382.83 334.52L380.04 334.52L380.04 311.16L383.88 311.16L391.02 331.16Q390.95 330.36 390.87 329.19Q390.79 328.02 390.75 326.73Q390.70 325.43 390.70 324.28L390.70 311.16L393.48 311.16L393.48 334.52L389.64 334.52L382.54 314.52Q382.60 315.29 382.67 316.46Q382.73 317.62 382.78 318.92Q382.83 320.22 382.83 321.40" fill="white" fill-opacity="0.9"/>
<path d="M405.96 334.84Q402.83 334.84 401 333.02Q399.18 331.19 399.18 327.80L399.18 317.88Q399.18 314.49 401 312.66Q402.83 310.84 405.96 310.84Q409.10 310.84 410.92 312.66Q412.75 314.49 412.75 317.85L412.75 327.80Q412.75 331.19 410.92 333.02Q409.10 334.84 405.96 334.84M405.96 332.25Q407.85 332.25 408.86 331.18Q409.87 330.10 409.87 328.12L409.87 317.56Q409.87 315.58 408.86 314.50Q407.85 313.43 405.96 313.43Q404.11 313.43 403.08 314.50Q402.06 315.58 402.06 317.56L402.06 328.12Q402.06 330.10 403.08 331.18Q404.11 332.25 405.96 332.25" fill="white" fill-opacity="0.9"/>
<path d="M424.55 334.52L418.51 334.52L418.51 311.16L424.55 311.16Q426.83 311.16 428.47 312.02Q430.12 312.89 431.03 314.46Q431.95 316.02 431.95 318.17L431.95 327.48Q431.95 329.62 431.03 331.21Q430.12 332.79 428.47 333.66Q426.83 334.52 424.55 334.52M421.39 313.72L421.39 331.96L424.55 331.96Q426.67 331.96 427.87 330.78Q429.07 329.59 429.07 327.48L429.07 318.17Q429.07 316.09 427.87 314.90Q426.67 313.72 424.55 313.72" fill="white" fill-opacity="0.9"/>
<path d="M451.40 334.52L437.96 334.52L437.96 311.16L451.40 311.16L451.40 313.78L440.81 313.78L440.81 321.02L450.28 321.02L450.28 323.58L440.81 323.58L440.81 331.90L451.40 331.90" fill="white" fill-opacity="0.9"/>
<path d="M463.69 334.84Q460.30 334.84 458.28 333.05Q456.27 331.26 456.27 328.12L459.15 328.12Q459.15 330.07 460.39 331.18Q461.64 332.28 463.69 332.28Q465.67 332.28 466.86 331.13Q468.04 329.98 468.04 328.12Q468.04 326.71 467.29 325.67Q466.54 324.63 465.13 324.25L461.58 323.26Q459.37 322.62 458.11 320.97Q456.84 319.32 456.84 317.08Q456.84 315.22 457.67 313.82Q458.51 312.41 460.01 311.62Q461.51 310.84 463.47 310.84Q465.45 310.84 466.97 311.62Q468.49 312.41 469.35 313.80Q470.22 315.19 470.22 317.02L467.34 317.02Q467.34 315.42 466.25 314.41Q465.16 313.40 463.47 313.40Q461.77 313.40 460.71 314.41Q459.66 315.42 459.66 317.02Q459.66 318.30 460.35 319.21Q461.03 320.12 462.28 320.47L465.93 321.50Q468.27 322.14 469.56 323.91Q470.86 325.69 470.86 328.12Q470.86 331.19 468.91 333.02Q466.95 334.84 463.69 334.84" fill="white" fill-opacity="0.9"/>
</g>
<path d="M76.74 197.64L72.21 197.64L72.21 180.12L76.74 180.12Q78.45 180.12 79.68 180.77Q80.92 181.42 81.60 182.59Q82.29 183.77 82.29 185.38L82.29 192.36Q82.29 193.97 81.60 195.16Q80.92 196.34 79.68 196.99Q78.45 197.64 76.74 197.64M74.37 182.04L74.37 195.72L76.74 195.72Q78.33 195.72 79.23 194.83Q80.13 193.94 80.13 192.36L80.13 185.38Q80.13 183.82 79.23 182.93Q78.33 182.04 76.74 182.04" fill="white" fill-opacity="0.7"/>
<path d="M97.60 197.64L87.52 197.64L87.52 180.12L89.68 180.12L89.68 195.67L97.60 195.67" fill="white" fill-opacity="0.7"/>
<path d="M119.25 197.88Q117.21 197.88 116.01 196.74Q114.81 195.60 114.81 193.75Q114.81 192.53 115.36 191.62Q115.91 190.70 116.90 190.19Q117.88 189.67 119.15 189.67L123.23 189.67L123.23 188.64Q123.23 186.07 120.42 186.07Q119.18 186.07 118.41 186.53Q117.64 186.98 117.59 187.80L115.43 187.80Q115.55 186.24 116.88 185.22Q118.22 184.20 120.42 184.20Q122.82 184.20 124.11 185.35Q125.39 186.50 125.39 188.57L125.39 197.64L123.26 197.64L123.26 195.24L123.21 195.24Q123.02 196.46 121.98 197.17Q120.95 197.88 119.25 197.88M119.78 196.06Q121.36 196.06 122.30 195.29Q123.23 194.52 123.23 193.20L123.23 191.35L119.39 191.35Q118.34 191.35 117.68 191.99Q117.02 192.62 117.02 193.68Q117.02 194.78 117.75 195.42Q118.48 196.06 119.78 196.06" fill="white" fill-opacity="0.7"/>
<path d="M131.97 197.64L129.81 197.64L129.81 184.44L131.97 184.44L131.97 186.96L131.99 186.96Q132.16 185.64 133.07 184.92Q133.98 184.20 135.50 184.20Q137.49 184.20 138.66 185.42Q139.84 186.65 139.84 188.76L139.84 197.64L137.68 197.64L137.68 189.14Q137.68 187.63 136.92 186.83Q136.17 186.02 134.87 186.02Q133.53 186.02 132.75 186.86Q131.97 187.70 131.97 189.24" fill="white" fill-opacity="0.7"/>
<path d="M148.43 197.88Q146.46 197.88 145.28 196.56Q144.09 195.24 144.09 192.98L144.09 189.12Q144.09 186.84 145.26 185.52Q146.44 184.20 148.43 184.20Q149.92 184.20 150.89 184.94Q151.86 185.69 152.06 186.96L152.08 186.96L152.03 183.96L152.03 180.12L154.19 180.12L154.19 197.64L152.03 197.64L152.03 195.12L152.01 195.12Q151.84 196.42 150.88 197.15Q149.92 197.88 148.43 197.88M149.15 196.01Q150.50 196.01 151.26 195.17Q152.03 194.33 152.03 192.84L152.03 189.24Q152.03 187.75 151.26 186.91Q150.50 186.07 149.15 186.07Q147.78 186.07 147.02 186.78Q146.25 187.49 146.25 189.12L146.25 192.96Q146.25 194.57 147.02 195.29Q147.78 196.01 149.15 196.01" fill="white" fill-opacity="0.7"/>
<path d="M175.17 197.64L173.03 197.64L173.03 180.12L178.43 180.12Q179.99 180.12 181.17 180.76Q182.34 181.39 182.99 182.52Q183.64 183.65 183.64 185.16Q183.64 186.94 182.73 188.21Q181.82 189.48 180.30 189.98L183.88 197.64L181.50 197.64L178.07 190.20L175.17 190.20L175.17 197.64M175.17 182.06L175.17 188.26L178.43 188.26Q179.78 188.26 180.59 187.40Q181.41 186.55 181.41 185.16Q181.41 183.74 180.59 182.90Q179.78 182.06 178.43 182.06" fill="white" fill-opacity="0.7"/>
<path d="M192.59 197.88Q190.19 197.88 188.80 196.54Q187.41 195.19 187.41 192.84L187.41 184.92Q187.41 182.57 188.80 181.22Q190.19 179.88 192.59 179.88Q194.94 179.88 196.34 181.24Q197.73 182.59 197.73 184.92L195.57 184.92Q195.57 183.43 194.79 182.63Q194.01 181.82 192.59 181.82Q191.18 181.82 190.37 182.63Q189.57 183.43 189.57 184.92L189.57 192.84Q189.57 194.33 190.37 195.13Q191.18 195.94 192.59 195.94Q194.01 195.94 194.79 195.13Q195.57 194.33 195.57 192.84L197.73 192.84Q197.73 195.17 196.34 196.52Q194.94 197.88 192.59 197.88" fill="white" fill-opacity="0.7"/>
<path d="M221.32 197.64L219.16 197.64L219.16 188.21L215.32 188.21L215.32 186.24L219.16 186.24L219.16 183.48Q219.16 181.92 220.14 181.02Q221.13 180.12 222.86 180.12L226.72 180.12L226.72 182.09L222.86 182.09Q221.32 182.09 221.32 183.48L221.32 186.24L226.72 186.24L226.72 188.21L221.32 188.21" fill="white" fill-opacity="0.7"/>
<path d="M233.25 197.64L231.09 197.64L231.09 184.44L233.25 184.44L233.25 186.96L233.30 186.96Q233.46 185.69 234.38 184.94Q235.29 184.20 236.82 184.20Q238.89 184.20 240 185.44Q241.12 186.67 241.12 188.95L241.12 190.08L238.96 190.08L238.96 188.95Q238.96 186.07 236.15 186.07Q234.74 186.07 233.99 186.89Q233.25 187.70 233.25 189.24" fill="white" fill-opacity="0.7"/>
<path d="MNaN 197.83Q247.62 197.83 246.22 196.44Q244.82 195.05 244.82 192.55L244.82 189.53Q244.82 187.01 246.21 185.63Q247.60 184.25 NaN 184.25Q252.40 184.25 253.79 185.63Q255.18 187.01 255.18 189.53L255.18 192.55Q255.18 195.05 253.78 196.44Q252.38 197.83 NaN 197.83MNaN 195.91Q251.42 195.91 252.22 195.12Q253.02 194.33 253.02 192.79L253.02 189.29Q253.02 187.75 252.22 186.96Q251.42 186.17 NaN 186.17Q248.61 186.17 247.79 186.96Q246.98 187.75 246.98 189.29L246.98 192.79Q246.98 194.33 247.79 195.12Q248.61 195.91 NaN 195.91" fill="white" fill-opacity="0.7"/>
<path d="M260.66 197.64L258.64 197.64L258.64 184.44L260.51 184.44L260.51 186.19L260.56 186.19Q260.68 185.30 261.27 184.75Q261.86 184.20 262.77 184.20Q263.63 184.20 264.23 184.70Q264.83 185.21 265.10 186.07L265.12 186.07Q265.29 185.21 265.88 184.70Q266.46 184.20 267.38 184.20Q268.65 184.20 269.40 185.15Q270.16 186.10 270.16 187.61L270.16 197.64L268.14 197.64L268.14 187.58Q268.14 186.79 267.76 186.32Q267.38 185.86 266.70 185.86Q266.06 185.86 265.67 186.31Q265.29 186.77 265.29 187.56L265.29 197.64L263.51 197.64L263.51 187.58Q263.51 186.79 263.13 186.32Q262.74 185.86 262.10 185.86Q261.42 185.86 261.04 186.31Q260.66 186.77 260.66 187.56" fill="white" fill-opacity="0.7"/>
<path d="M290.37 197.64L288.21 197.64L288.21 180.12L293.85 180.12Q296.30 180.12 297.75 181.52Q299.20 182.93 299.20 185.28Q299.20 187.63 297.75 189.04Q296.30 190.44 293.85 190.44L290.37 190.44L290.37 197.64M290.37 182.06L290.37 188.50L293.85 188.50Q295.26 188.50 296.12 187.62Q296.97 186.74 296.97 185.28Q296.97 183.79 296.12 182.93Q295.26 182.06 293.85 182.06" fill="white" fill-opacity="0.7"/>
<path d="M306.45 197.88Q304.41 197.88 303.21 196.74Q302.01 195.60 302.01 193.75Q302.01 192.53 302.56 191.62Q303.11 190.70 304.10 190.19Q305.08 189.67 306.35 189.67L310.43 189.67L310.43 188.64Q310.43 186.07 307.62 186.07Q306.38 186.07 305.61 186.53Q304.84 186.98 304.79 187.80L302.63 187.80Q302.75 186.24 304.08 185.22Q305.42 184.20 307.62 184.20Q310.02 184.20 311.31 185.35Q312.59 186.50 312.59 188.57L312.59 197.64L310.46 197.64L310.46 195.24L310.41 195.24Q310.22 196.46 309.18 197.17Q308.15 197.88 306.45 197.88M306.98 196.06Q308.56 196.06 309.50 195.29Q310.43 194.52 310.43 193.20L310.43 191.35L306.59 191.35Q305.54 191.35 304.88 191.99Q304.22 192.62 304.22 193.68Q304.22 194.78 304.95 195.42Q305.68 196.06 306.98 196.06" fill="white" fill-opacity="0.7"/>
<path d="M319.65 197.64L317.49 197.64L317.49 184.44L319.65 184.44L319.65 186.96L319.70 186.96Q319.86 185.69 320.78 184.94Q321.69 184.20 323.22 184.20Q325.29 184.20 326.40 185.44Q327.52 186.67 327.52 188.95L327.52 190.08L325.36 190.08L325.36 188.95Q325.36 186.07 322.55 186.07Q321.14 186.07 320.39 186.89Q319.65 187.70 319.65 189.24" fill="white" fill-opacity="0.7"/>
<path d="M342.52 197.64L331.24 197.64L331.24 195.67L335.92 195.67L335.92 186.41L331.72 186.41L331.72 184.44L338.08 184.44L338.08 195.67L342.52 195.67L342.52 197.64M336.76 182.06Q335.97 182.06 335.51 181.66Q335.06 181.25 335.06 180.55Q335.06 179.83 335.51 179.41Q335.97 178.99 336.76 178.99Q337.55 178.99 338.01 179.41Q338.46 179.83 338.46 180.55Q338.46 181.25 338.01 181.66Q337.55 182.06 336.76 182.06" fill="white" fill-opacity="0.7"/>
<path d="M352.22 197.64L349.38 197.64L344.90 184.44L347.22 184.44L350.10 193.32Q350.37 194.11 350.56 194.84Q350.75 195.58 350.85 195.98Q350.97 195.58 351.14 194.84Q351.30 194.11 351.54 193.32L354.42 184.44L356.70 184.44" fill="white" fill-opacity="0.7"/>
<path d="M364.05 197.88Q362.01 197.88 360.81 196.74Q359.61 195.60 359.61 193.75Q359.61 192.53 360.16 191.62Q360.71 190.70 361.70 190.19Q362.68 189.67 363.95 189.67L368.03 189.67L368.03 188.64Q368.03 186.07 365.22 186.07Q363.98 186.07 363.21 186.53Q362.44 186.98 362.39 187.80L360.23 187.80Q360.35 186.24 361.68 185.22Q363.02 184.20 365.22 184.20Q367.62 184.20 368.91 185.35Q370.19 186.50 370.19 188.57L370.19 197.64L368.06 197.64L368.06 195.24L368.01 195.24Q367.82 196.46 366.78 197.17Q365.75 197.88 364.05 197.88M364.58 196.06Q366.16 196.06 367.10 195.29Q368.03 194.52 368.03 193.20L368.03 191.35L364.19 191.35Q363.14 191.35 362.48 191.99Q361.82 192.62 361.82 193.68Q361.82 194.78 362.55 195.42Q363.28 196.06 364.58 196.06" fill="white" fill-opacity="0.7"/>
<path d="M376.77 197.64L374.61 197.64L374.61 180.12L376.77 180.12L376.77 186.96L376.79 186.96Q376.96 185.64 377.87 184.92Q378.78 184.20 380.30 184.20Q382.29 184.20 383.46 185.42Q384.64 186.65 384.64 188.76L384.64 197.64L382.48 197.64L382.48 189.12Q382.48 187.63 381.72 186.83Q380.97 186.02 379.67 186.02Q378.33 186.02 377.55 186.86Q376.77 187.70 376.77 189.24" fill="white" fill-opacity="0.7"/>
<path d="M392.85 197.88Q390.81 197.88 389.61 196.74Q388.41 195.60 388.41 193.75Q388.41 192.53 388.96 191.62Q389.51 190.70 390.50 190.19Q391.48 189.67 392.75 189.67L396.83 189.67L396.83 188.64Q396.83 186.07 394.02 186.07Q392.78 186.07 392.01 186.53Q391.24 186.98 391.19 187.80L389.03 187.80Q389.15 186.24 390.48 185.22Q391.82 184.20 394.02 184.20Q396.42 184.20 397.71 185.35Q398.99 186.50 398.99 188.57L398.99 197.64L396.86 197.64L396.86 195.24L396.81 195.24Q396.62 196.46 395.58 197.17Q394.55 197.88 392.85 197.88M393.38 196.06Q394.96 196.06 395.90 195.29Q396.83 194.52 396.83 193.20L396.83 191.35L392.99 191.35Q391.94 191.35 391.28 191.99Q390.62 192.62 390.62 193.68Q390.62 194.78 391.35 195.42Q392.08 196.06 393.38 196.06" fill="white" fill-opacity="0.7"/>
<path d="M405.57 197.64L403.41 197.64L403.41 184.44L405.57 184.44L405.57 186.96L405.59 186.96Q405.76 185.64 406.67 184.92Q407.58 184.20 409.10 184.20Q411.09 184.20 412.26 185.42Q413.44 186.65 413.44 188.76L413.44 197.64L411.28 197.64L411.28 189.14Q411.28 187.63 410.52 186.83Q409.77 186.02 408.47 186.02Q407.13 186.02 406.35 186.86Q405.57 187.70 405.57 189.24" fill="white" fill-opacity="0.7"/>
<path d="M437.30 197.88Q434.75 197.88 433.24 196.54Q431.73 195.19 431.73 192.84L433.89 192.84Q433.89 194.30 434.82 195.13Q435.76 195.96 437.30 195.96Q438.78 195.96 439.67 195.10Q440.56 194.23 440.56 192.84Q440.56 191.78 440 191Q439.43 190.22 438.38 189.94L435.71 189.19Q434.06 188.71 433.11 187.48Q432.16 186.24 432.16 184.56Q432.16 183.17 432.78 182.11Q433.41 181.06 434.54 180.47Q435.66 179.88 437.13 179.88Q438.62 179.88 439.76 180.47Q440.90 181.06 441.54 182.10Q442.19 183.14 442.19 184.51L440.03 184.51Q440.03 183.31 439.22 182.56Q438.40 181.80 437.13 181.80Q435.86 181.80 435.06 182.56Q434.27 183.31 434.27 184.51Q434.27 185.47 434.79 186.16Q435.30 186.84 436.24 187.10L438.98 187.87Q440.73 188.35 441.70 189.68Q442.67 191.02 442.67 192.84Q442.67 195.14 441.21 196.51Q439.74 197.88 437.30 197.88" fill="white" fill-opacity="0.7"/>
<path d="M451.60 197.88Q449.27 197.88 447.84 196.48Q446.42 195.07 446.42 192.60L446.42 189.48Q446.42 187.01 447.84 185.60Q449.27 184.20 451.60 184.20Q453.16 184.20 454.32 184.82Q455.49 185.45 456.14 186.58Q456.78 187.70 456.78 189.24L456.78 191.59L448.53 191.59L448.53 192.84Q448.53 194.30 449.37 195.16Q450.21 196.01 451.60 196.01Q452.80 196.01 453.58 195.54Q454.36 195.07 454.53 194.28L456.69 194.28Q456.47 195.94 455.08 196.91Q453.69 197.88 451.60 197.88M448.53 189.24L448.53 189.91L454.67 189.91L454.67 189.24Q454.67 187.68 453.87 186.83Q453.06 185.98 451.60 185.98Q450.14 185.98 449.33 186.83Q448.53 187.68 448.53 189.24" fill="white" fill-opacity="0.7"/>
<path d="M464.08 197.64L461.70 197.64L459.54 184.44L461.42 184.44L462.76 193.75Q462.83 194.28 462.90 194.92Q462.98 195.55 463 195.96Q463.05 195.55 463.11 194.92Q463.17 194.28 463.26 193.75L464.92 184.44L467.08 184.44L468.74 193.75Q468.83 194.28 468.92 194.92Q469 195.55 469.02 195.96Q469.07 195.55 469.14 194.92Q469.22 194.28 469.29 193.75L470.68 184.44L472.46 184.44L470.20 197.64L467.82 197.64L466.31 188.52Q466.22 187.85 466.13 187.09Q466.05 186.34 466 185.93Q465.98 186.34 465.88 187.09Q465.78 187.85 465.66 188.52" fill="white" fill-opacity="0.7"/>
<path d="M479.25 197.88Q477.21 197.88 476.01 196.74Q474.81 195.60 474.81 193.75Q474.81 192.53 475.36 191.62Q475.91 190.70 476.90 190.19Q477.88 189.67 479.15 189.67L483.23 189.67L483.23 188.64Q483.23 186.07 480.42 186.07Q479.18 186.07 478.41 186.53Q477.64 186.98 477.59 187.80L475.43 187.80Q475.55 186.24 476.88 185.22Q478.22 184.20 480.42 184.20Q482.82 184.20 484.11 185.35Q485.39 186.50 485.39 188.57L485.39 197.64L483.26 197.64L483.26 195.24L483.21 195.24Q483.02 196.46 481.98 197.17Q480.95 197.88 479.25 197.88M479.78 196.06Q481.36 196.06 482.30 195.29Q483.23 194.52 483.23 193.20L483.23 191.35L479.39 191.35Q478.34 191.35 477.68 191.99Q477.02 192.62 477.02 193.68Q477.02 194.78 477.75 195.42Q478.48 196.06 479.78 196.06" fill="white" fill-opacity="0.7"/>
<path d="M513.64 198.43L513.64 200.52Q510.21 199.75 508.32 197.30Q506.44 194.86 506.44 191.16L506.44 186.84Q506.44 183.14 508.32 180.70Q510.21 178.25 513.64 177.48L513.64 179.57Q512.10 179.93 510.96 180.94Q509.82 181.94 509.21 183.44Q508.60 184.94 508.60 186.84L508.60 191.16Q508.60 193.03 509.21 194.54Q509.82 196.06 510.96 197.06Q512.10 198.07 513.64 198.43" fill="white" fill-opacity="0.7"/>
<path d="M520.22 197.64L518.13 197.64L518.13 180.12L521.32 180.12L523.55 187.70L525.88 180.12L529.07 180.12L529.07 197.64L526.98 197.64L526.98 189.36Q526.98 188.18 527.02 186.66Q527.06 185.14 527.13 183.58Q527.20 182.02 527.30 180.77L524.46 189.82L522.59 189.82L519.88 180.98Q520.07 182.76 520.14 184.87Q520.22 186.98 520.22 189.36" fill="white" fill-opacity="0.7"/>
<path d="M538 197.88Q535.65 197.88 534.28 196.51Q532.91 195.14 532.91 192.60L532.91 185.16Q532.91 182.62 534.28 181.25Q535.65 179.88 538 179.88Q540.35 179.88 541.72 181.25Q543.09 182.62 543.09 185.14L543.09 192.60Q543.09 195.14 541.72 196.51Q540.35 197.88 538 197.88M538 195.94Q539.42 195.94 540.17 195.13Q540.93 194.33 540.93 192.84L540.93 184.92Q540.93 183.43 540.17 182.63Q539.42 181.82 538 181.82Q536.61 181.82 535.84 182.63Q535.07 183.43 535.07 184.92L535.07 192.84Q535.07 194.33 535.84 195.13Q536.61 195.94 538 195.94" fill="white" fill-opacity="0.7"/>
<path d="M549.57 197.64L547.43 197.64L547.43 180.12L552.83 180.12Q554.39 180.12 555.57 180.76Q556.74 181.39 557.39 182.52Q558.04 183.65 558.04 185.16Q558.04 186.94 557.13 188.21Q556.22 189.48 554.70 189.98L558.28 197.64L555.90 197.64L552.47 190.20L549.57 190.20L549.57 197.64M549.57 182.06L549.57 188.26L552.83 188.26Q554.18 188.26 554.99 187.40Q555.81 186.55 555.81 185.16Q555.81 183.74 554.99 182.90Q554.18 182.06 552.83 182.06" fill="white" fill-opacity="0.7"/>
<path d="M567.88 197.64L565.72 197.64L565.72 182.09L560.92 182.09L560.92 180.12L572.68 180.12L572.68 182.09L567.88 182.09" fill="white" fill-opacity="0.7"/>
<path d="M578.39 197.64L576.23 197.64L576.23 180.12L578.39 180.12L578.39 187.61L584.01 187.61L584.01 180.12L586.17 180.12L586.17 197.64L584.01 197.64L584.01 189.58L578.39 189.58" fill="white" fill-opacity="0.7"/>
<path d="M591.16 200.52L591.16 198.43Q592.72 198.07 593.85 197.06Q594.98 196.06 595.59 194.54Q596.20 193.03 596.20 191.16L596.20 186.84Q596.20 184.94 595.59 183.44Q594.98 181.94 593.85 180.94Q592.72 179.93 591.16 179.57L591.16 177.48Q594.59 178.25 596.48 180.70Q598.36 183.14 598.36 186.84L598.36 191.16Q598.36 194.86 596.48 197.30Q594.59 199.75 591.16 200.52" fill="white" fill-opacity="0.7"/>
<path d="M623.25 197.88Q621.21 197.88 620.01 196.74Q618.81 195.60 618.81 193.75Q618.81 192.53 619.36 191.62Q619.91 190.70 620.90 190.19Q621.88 189.67 623.15 189.67L627.23 189.67L627.23 188.64Q627.23 186.07 624.42 186.07Q623.18 186.07 622.41 186.53Q621.64 186.98 621.59 187.80L619.43 187.80Q619.55 186.24 620.88 185.22Q622.22 184.20 624.42 184.20Q626.82 184.20 628.11 185.35Q629.39 186.50 629.39 188.57L629.39 197.64L627.26 197.64L627.26 195.24L627.21 195.24Q627.02 196.46 625.98 197.17Q624.95 197.88 623.25 197.88M623.78 196.06Q625.36 196.06 626.30 195.29Q627.23 194.52 627.23 193.20L627.23 191.35L623.39 191.35Q622.34 191.35 621.68 191.99Q621.02 192.62 621.02 193.68Q621.02 194.78 621.75 195.42Q622.48 196.06 623.78 196.06" fill="white" fill-opacity="0.7"/>
<path d="M636.45 197.64L634.29 197.64L634.29 184.44L636.45 184.44L636.45 186.96L636.50 186.96Q636.66 185.69 637.58 184.94Q638.49 184.20 640.02 184.20Q642.09 184.20 643.20 185.44Q644.32 186.67 644.32 188.95L644.32 190.08L642.16 190.08L642.16 188.95Q642.16 186.07 639.35 186.07Q637.94 186.07 637.19 186.89Q636.45 187.70 636.45 189.24" fill="white" fill-opacity="0.7"/>
<path d="M653.20 197.88Q650.87 197.88 649.44 196.48Q648.02 195.07 648.02 192.60L648.02 189.48Q648.02 187.01 649.44 185.60Q650.87 184.20 653.20 184.20Q654.76 184.20 655.92 184.82Q657.09 185.45 657.74 186.58Q658.38 187.70 658.38 189.24L658.38 191.59L650.13 191.59L650.13 192.84Q650.13 194.30 650.97 195.16Q651.81 196.01 653.20 196.01Q654.40 196.01 655.18 195.54Q655.96 195.07 656.13 194.28L658.29 194.28Q658.07 195.94 656.68 196.91Q655.29 197.88 653.20 197.88M650.13 189.24L650.13 189.91L656.27 189.91L656.27 189.24Q656.27 187.68 655.47 186.83Q654.66 185.98 653.20 185.98Q651.74 185.98 650.93 186.83Q650.13 187.68 650.13 189.24" fill="white" fill-opacity="0.7"/>
<path d="M680.85 197.88Q678.81 197.88 677.61 196.74Q676.41 195.60 676.41 193.75Q676.41 192.53 676.96 191.62Q677.51 190.70 678.50 190.19Q679.48 189.67 680.75 189.67L684.83 189.67L684.83 188.64Q684.83 186.07 682.02 186.07Q680.78 186.07 680.01 186.53Q679.24 186.98 679.19 187.80L677.03 187.80Q677.15 186.24 678.48 185.22Q679.82 184.20 682.02 184.20Q684.42 184.20 685.71 185.35Q686.99 186.50 686.99 188.57L686.99 197.64L684.86 197.64L684.86 195.24L684.81 195.24Q684.62 196.46 683.58 197.17Q682.55 197.88 680.85 197.88M681.38 196.06Q682.96 196.06 683.90 195.29Q684.83 194.52 684.83 193.20L684.83 191.35L680.99 191.35Q679.94 191.35 679.28 191.99Q678.62 192.62 678.62 193.68Q678.62 194.78 679.35 195.42Q680.08 196.06 681.38 196.06" fill="white" fill-opacity="0.7"/>
<path d="M697.82 197.64L694.98 197.64L690.50 184.44L692.82 184.44L695.70 193.32Q695.97 194.11 696.16 194.84Q696.35 195.58 696.45 195.98Q696.57 195.58 696.74 194.84Q696.90 194.11 697.14 193.32L700.02 184.44L702.30 184.44" fill="white" fill-opacity="0.7"/>
<path d="M709.65 197.88Q707.61 197.88 706.41 196.74Q705.21 195.60 705.21 193.75Q705.21 192.53 705.76 191.62Q706.31 190.70 707.30 190.19Q708.28 189.67 709.55 189.67L713.63 189.67L713.63 188.64Q713.63 186.07 710.82 186.07Q709.58 186.07 708.81 186.53Q708.04 186.98 707.99 187.80L705.83 187.80Q705.95 186.24 707.28 185.22Q708.62 184.20 710.82 184.20Q713.22 184.20 714.51 185.35Q715.79 186.50 715.79 188.57L715.79 197.64L713.66 197.64L713.66 195.24L713.61 195.24Q713.42 196.46 712.38 197.17Q711.35 197.88 709.65 197.88M710.18 196.06Q711.76 196.06 712.70 195.29Q713.63 194.52 713.63 193.20L713.63 191.35L709.79 191.35Q708.74 191.35 708.08 191.99Q707.42 192.62 707.42 193.68Q707.42 194.78 708.15 195.42Q708.88 196.06 710.18 196.06" fill="white" fill-opacity="0.7"/>
<path d="M731.32 197.64L720.04 197.64L720.04 195.67L724.72 195.67L724.72 186.41L720.52 186.41L720.52 184.44L726.88 184.44L726.88 195.67L731.32 195.67L731.32 197.64M725.56 182.06Q724.77 182.06 724.31 181.66Q723.86 181.25 723.86 180.55Q723.86 179.83 724.31 179.41Q724.77 178.99 725.56 178.99Q726.35 178.99 726.81 179.41Q727.26 179.83 727.26 180.55Q727.26 181.25 726.81 181.66Q726.35 182.06 725.56 182.06" fill="white" fill-opacity="0.7"/>
<path d="M745.60 197.64L741.52 197.64Q739.77 197.64 738.72 196.62Q737.68 195.60 737.68 193.92L737.68 182.09L733.12 182.09L733.12 180.12L739.84 180.12L739.84 193.92Q739.84 194.74 740.30 195.20Q740.75 195.67 741.52 195.67L745.60 195.67" fill="white" fill-opacity="0.7"/>
<path d="M752.85 197.88Q750.81 197.88 749.61 196.74Q748.41 195.60 748.41 193.75Q748.41 192.53 748.96 191.62Q749.51 190.70 750.50 190.19Q751.48 189.67 752.75 189.67L756.83 189.67L756.83 188.64Q756.83 186.07 754.02 186.07Q752.78 186.07 752.01 186.53Q751.24 186.98 751.19 187.80L749.03 187.80Q749.15 186.24 750.48 185.22Q751.82 184.20 754.02 184.20Q756.42 184.20 757.71 185.35Q758.99 186.50 758.99 188.57L758.99 197.64L756.86 197.64L756.86 195.24L756.81 195.24Q756.62 196.46 755.58 197.17Q754.55 197.88 752.85 197.88M753.38 196.06Q754.96 196.06 755.90 195.29Q756.83 194.52 756.83 193.20L756.83 191.35L752.99 191.35Q751.94 191.35 751.28 191.99Q750.62 192.62 750.62 193.68Q750.62 194.78 751.35 195.42Q752.08 196.06 753.38 196.06" fill="white" fill-opacity="0.7"/>
<path d="M769.17 197.88Q767.68 197.88 766.72 197.15Q765.76 196.42 765.59 195.12L765.57 195.12L765.57 197.64L763.41 197.64L763.41 180.12L765.57 180.12L765.57 183.96L765.52 186.96L765.54 186.96Q765.74 185.69 766.71 184.94Q767.68 184.20 769.17 184.20Q771.16 184.20 772.34 185.52Q773.51 186.84 773.51 189.12L773.51 192.98Q773.51 195.24 772.34 196.56Q771.16 197.88 769.17 197.88M768.45 196.01Q769.82 196.01 770.58 195.29Q771.35 194.57 771.35 192.96L771.35 189.12Q771.35 187.49 770.58 186.78Q769.82 186.07 768.45 186.07Q767.13 186.07 766.35 186.91Q765.57 187.75 765.57 189.24L765.57 192.84Q765.57 194.33 766.35 195.17Q767.13 196.01 768.45 196.01" fill="white" fill-opacity="0.7"/>
<path d="M788.80 197.64L784.72 197.64Q782.97 197.64 781.92 196.62Q780.88 195.60 780.88 193.92L780.88 182.09L776.32 182.09L776.32 180.12L783.04 180.12L783.04 193.92Q783.04 194.74 783.50 195.20Q783.95 195.67 784.72 195.67L788.80 195.67" fill="white" fill-opacity="0.7"/>
<path d="M797.20 197.88Q794.87 197.88 793.44 196.48Q792.02 195.07 792.02 192.60L792.02 189.48Q792.02 187.01 793.44 185.60Q794.87 184.20 797.20 184.20Q798.76 184.20 799.92 184.82Q801.09 185.45 801.74 186.58Q802.38 187.70 802.38 189.24L802.38 191.59L794.13 191.59L794.13 192.84Q794.13 194.30 794.97 195.16Q795.81 196.01 797.20 196.01Q798.40 196.01 799.18 195.54Q799.96 195.07 800.13 194.28L802.29 194.28Q802.07 195.94 800.68 196.91Q799.29 197.88 797.20 197.88M794.13 189.24L794.13 189.91L800.27 189.91L800.27 189.24Q800.27 187.68 799.47 186.83Q798.66 185.98 797.20 185.98Q795.74 185.98 794.93 186.83Q794.13 187.68 794.13 189.24" fill="white" fill-opacity="0.7"/>
<path d="M826 197.83Q823.62 197.83 822.22 196.44Q820.82 195.05 820.82 192.55L820.82 189.53Q820.82 187.01 822.21 185.63Q823.60 184.25 826 184.25Q828.40 184.25 829.79 185.63Q831.18 187.01 831.18 189.53L831.18 192.55Q831.18 195.05 829.78 196.44Q828.38 197.83 826 197.83M826 195.91Q827.42 195.91 828.22 195.12Q829.02 194.33 829.02 192.79L829.02 189.29Q829.02 187.75 828.22 186.96Q827.42 186.17 826 186.17Q824.61 186.17 823.79 186.96Q822.98 187.75 822.98 189.29L822.98 192.79Q822.98 194.33 823.79 195.12Q824.61 195.91 826 195.91" fill="white" fill-opacity="0.7"/>
<path d="M837.57 197.64L835.41 197.64L835.41 184.44L837.57 184.44L837.57 186.96L837.59 186.96Q837.76 185.64 838.67 184.92Q839.58 184.20 841.10 184.20Q843.09 184.20 844.26 185.42Q845.44 186.65 845.44 188.76L845.44 197.64L843.28 197.64L843.28 189.14Q843.28 187.63 842.52 186.83Q841.77 186.02 840.47 186.02Q839.13 186.02 838.35 186.86Q837.57 187.70 837.57 189.24" fill="white" fill-opacity="0.7"/>
<path d="M868.74 197.64L864.21 197.64L864.21 180.12L868.74 180.12Q870.45 180.12 871.68 180.77Q872.92 181.42 873.60 182.59Q874.29 183.77 874.29 185.38L874.29 192.36Q874.29 193.97 873.60 195.16Q872.92 196.34 871.68 196.99Q870.45 197.64 868.74 197.64M866.37 182.04L866.37 195.72L868.74 195.72Q870.33 195.72 871.23 194.83Q872.13 193.94 872.13 192.36L872.13 185.38Q872.13 183.82 871.23 182.93Q870.33 182.04 868.74 182.04" fill="white" fill-opacity="0.7"/>
<path d="M889.72 197.64L878.44 197.64L878.44 195.67L883.12 195.67L883.12 186.41L878.92 186.41L878.92 184.44L885.28 184.44L885.28 195.67L889.72 195.67L889.72 197.64M883.96 182.06Q883.17 182.06 882.71 181.66Q882.26 181.25 882.26 180.55Q882.26 179.83 882.71 179.41Q883.17 178.99 883.96 178.99Q884.75 178.99 885.21 179.41Q885.66 179.83 885.66 180.55Q885.66 181.25 885.21 181.66Q884.75 182.06 883.96 182.06" fill="white" fill-opacity="0.7"/>
<path d="M898.36 201.96L894.66 201.96L894.66 199.99L898.38 199.99Q899.51 199.99 900.16 199.36Q900.81 198.72 900.81 197.64L900.81 196.44L900.86 194.28L900.78 194.28Q900.59 195.46 899.66 196.09Q898.72 196.73 897.30 196.73Q895.26 196.73 894.09 195.43Q892.91 194.14 892.91 191.88L892.91 189.10Q892.91 186.84 894.09 185.52Q895.26 184.20 897.30 184.20Q898.72 184.20 899.66 184.87Q900.59 185.54 900.78 186.72L900.83 186.72L900.83 184.44L902.97 184.44L902.97 197.64Q902.97 199.63 901.73 200.80Q900.50 201.96 898.36 201.96M897.95 194.93Q899.30 194.93 900.06 194.09Q900.83 193.25 900.83 191.76L900.83 189.24Q900.83 187.75 900.06 186.91Q899.30 186.07 897.95 186.07Q896.58 186.07 895.83 186.86Q895.07 187.66 895.07 189L895.07 192Q895.07 193.34 895.83 194.14Q896.58 194.93 897.95 194.93" fill="white" fill-opacity="0.7"/>
<path d="M918.52 197.64L907.24 197.64L907.24 195.67L911.92 195.67L911.92 186.41L907.72 186.41L907.72 184.44L914.08 184.44L914.08 195.67L918.52 195.67L918.52 197.64M912.76 182.06Q911.97 182.06 911.51 181.66Q911.06 181.25 911.06 180.55Q911.06 179.83 911.51 179.41Q911.97 178.99 912.76 178.99Q913.55 178.99 914.01 179.41Q914.46 179.83 914.46 180.55Q914.46 181.25 914.01 181.66Q913.55 182.06 912.76 182.06" fill="white" fill-opacity="0.7"/>
<path d="M932.80 197.64L922.72 197.64L922.72 180.12L924.88 180.12L924.88 195.67L932.80 195.67" fill="white" fill-opacity="0.7"/>
<path d="M941.20 197.83Q938.82 197.83 937.42 196.44Q936.02 195.05 936.02 192.55L936.02 189.53Q936.02 187.01 937.41 185.63Q938.80 184.25 941.20 184.25Q943.60 184.25 944.99 185.63Q946.38 187.01 946.38 189.53L946.38 192.55Q946.38 195.05 944.98 196.44Q943.58 197.83 941.20 197.83M941.20 195.91Q942.62 195.91 943.42 195.12Q944.22 194.33 944.22 192.79L944.22 189.29Q944.22 187.75 943.42 186.96Q942.62 186.17 941.20 186.17Q939.81 186.17 938.99 186.96Q938.18 187.75 938.18 189.29L938.18 192.79Q938.18 194.33 938.99 195.12Q939.81 195.91 941.20 195.91" fill="white" fill-opacity="0.7"/>
<path d="M955.79 197.88Q953.39 197.88 951.95 196.54Q950.51 195.19 950.51 192.84L950.51 189.24Q950.51 186.89 951.95 185.54Q953.39 184.20 955.79 184.20Q958.07 184.20 959.48 185.42Q960.88 186.65 960.95 188.76L958.79 188.76Q958.72 187.49 957.93 186.80Q957.14 186.12 955.79 186.12Q954.38 186.12 953.52 186.92Q952.67 187.73 952.67 189.22L952.67 192.84Q952.67 194.33 953.52 195.14Q954.38 195.96 955.79 195.96Q957.14 195.96 957.93 195.26Q958.72 194.57 958.79 193.32L960.95 193.32Q960.88 195.43 959.48 196.66Q958.07 197.88 955.79 197.88" fill="white" fill-opacity="0.7"/>
<path d="M967.29 197.64L965.13 197.64L965.13 180.12L967.29 180.12L967.29 189.89L969.81 189.89L973.50 184.44L975.98 184.44L971.73 190.73L976.22 197.64L973.70 197.64L969.86 191.76L967.29 191.76" fill="white" fill-opacity="0.7"/>
<path d="M984.40 197.88Q982.07 197.88 980.64 196.48Q979.22 195.07 979.22 192.60L979.22 189.48Q979.22 187.01 980.64 185.60Q982.07 184.20 984.40 184.20Q985.96 184.20 987.12 184.82Q988.29 185.45 988.94 186.58Q989.58 187.70 989.58 189.24L989.58 191.59L981.33 191.59L981.33 192.84Q981.33 194.30 982.17 195.16Q983.01 196.01 984.40 196.01Q985.60 196.01 986.38 195.54Q987.16 195.07 987.33 194.28L989.49 194.28Q989.27 195.94 987.88 196.91Q986.49 197.88 984.40 197.88M981.33 189.24L981.33 189.91L987.47 189.91L987.47 189.24Q987.47 187.68 986.67 186.83Q985.86 185.98 984.40 185.98Q982.94 185.98 982.13 186.83Q981.33 187.68 981.33 189.24" fill="white" fill-opacity="0.7"/>
<path d="M996.45 197.64L994.29 197.64L994.29 184.44L996.45 184.44L996.45 186.96L996.50 186.96Q996.66 185.69 997.58 184.94Q998.49 184.20 1000.02 184.20Q1002.09 184.20 1003.20 185.44Q1004.32 186.67 1004.32 188.95L1004.32 190.08L1002.16 190.08L1002.16 188.95Q1002.16 186.07 999.35 186.07Q997.94 186.07 997.19 186.89Q996.45 187.70 996.45 189.24" fill="white" fill-opacity="0.7"/>
<path d="M1013.20 197.88Q1012.31 197.88 1011.77 197.35Q1011.23 196.82 1011.23 195.98Q1011.23 195.10 1011.77 194.54Q1012.31 193.99 1013.20 193.99Q1014.09 193.99 1014.63 194.54Q1015.17 195.10 1015.17 195.98Q1015.17 196.82 1014.63 197.35Q1014.09 197.88 1013.20 197.88" fill="white" fill-opacity="0.7"/>
<path d="M76.11 136.06L66.42 136.06L84.56 65.98L97.14 65.98L115.18 136.06L105.49 136.06L101.07 117.82L80.53 117.82L76.11 136.06M87.54 88.92L82.45 109.95L99.15 109.95L94.16 89.02Q92.72 83.26 91.86 79.23Q90.99 75.20 90.80 73.76Q90.61 75.20 89.74 79.23Q88.88 83.26 87.54 88.92M137.55 136.06L128.05 136.06L128.05 65.98L150.80 65.98Q157.52 65.98 162.42 68.57Q167.31 71.16 170 75.82Q172.69 80.48 172.69 86.91Q172.69 93.24 170 97.90Q167.31 102.56 162.37 105.15Q157.42 107.74 150.80 107.74L137.55 107.74L137.55 136.06M137.55 74.43L137.55 99.29L150.80 99.29Q156.37 99.29 159.63 95.88Q162.90 92.48 162.90 86.91Q162.90 81.24 159.63 77.84Q156.37 74.43 150.80 74.43L137.55 74.43M225.10 136.06L186.90 136.06L186.90 127.42L201.20 127.42L201.20 74.62L186.90 74.62L186.90 65.98L225.10 65.98L225.10 74.62L210.80 74.62L210.80 127.42L225.10 127.42L225.10 136.06M263.98 137.02Q253.62 137.02 247.47 131.60Q241.33 126.17 241.33 116.67L250.83 116.67Q250.83 122.24 254.38 125.40Q257.94 128.57 263.98 128.57Q269.74 128.57 273.15 125.36Q276.56 122.14 276.56 116.76Q276.56 112.73 274.35 109.71Q272.14 106.68 268.11 105.63L257.74 102.84Q250.93 100.92 246.94 95.88Q242.96 90.84 242.96 83.93Q242.96 78.27 245.50 74Q248.05 69.72 252.66 67.37Q257.26 65.02 263.31 65.02Q269.46 65.02 274.11 67.37Q278.77 69.72 281.36 73.95Q283.95 78.17 283.95 83.74L274.54 83.74Q274.54 79.13 271.42 76.25Q268.30 73.37 263.31 73.37Q258.32 73.37 255.30 76.25Q252.27 79.13 252.27 83.74Q252.27 87.48 254.29 90.03Q256.30 92.57 259.95 93.63L270.61 96.51Q277.81 98.43 281.84 103.85Q285.87 109.28 285.87 116.76Q285.87 122.91 283.18 127.47Q280.50 132.03 275.55 134.52Q270.61 137.02 263.98 137.02M342.51 136.06L301.71 136.06L301.71 65.98L342.51 65.98L342.51 74.52L311.12 74.52L311.12 95.36L339.15 95.36L339.15 103.61L311.12 103.61L311.12 127.52L342.51 127.52L342.51 136.06M383.60 136.06L374.10 136.06L374.10 74.62L355.09 74.62L355.09 65.98L402.51 65.98L402.51 74.62L383.60 74.62L383.60 136.06M436.40 137.02Q426.51 137.02 421.18 131.55Q415.86 126.08 415.86 116.67L415.86 65.98L425.36 65.98L425.36 116.67Q425.36 122.24 428.10 125.40Q430.83 128.57 436.40 128.57Q441.87 128.57 444.70 125.40Q447.54 122.24 447.54 116.67L447.54 65.98L457.04 65.98L457.04 116.67Q457.04 126.17 451.71 131.60Q446.38 137.02 436.40 137.02M551.98 137.02Q542.29 137.02 536.58 131.60Q530.86 126.17 530.86 116.67L530.86 85.28Q530.86 75.87 536.58 70.44Q542.29 65.02 551.98 65.02Q561.58 65.02 567.30 70.49Q573.01 75.96 573.01 85.28L563.50 85.28Q563.50 79.61 560.43 76.54Q557.36 73.47 551.98 73.47Q546.51 73.47 543.44 76.54Q540.37 79.61 540.37 85.28L540.37 116.67Q540.37 122.43 543.44 125.50Q546.51 128.57 551.98 128.57Q557.36 128.57 560.43 125.50Q563.50 122.43 563.50 116.67L563.50 107.55L549.87 107.55L549.87 99.10L573.01 99.10L573.01 116.67Q573.01 126.08 567.30 131.55Q561.58 137.02 551.98 137.02M609.20 137.02Q599.60 137.02 594.03 131.45Q588.46 125.88 588.46 115.71L588.46 86.24Q588.46 76.16 594.03 70.59Q599.60 65.02 609.20 65.02Q618.80 65.02 624.37 70.54Q629.94 76.06 629.94 86.24L629.94 115.71Q629.94 125.88 624.37 131.45Q618.80 137.02 609.20 137.02M609.20 128.57Q614.58 128.57 617.50 125.50Q620.43 122.43 620.43 116.67L620.43 85.28Q620.43 79.61 617.55 76.54Q614.67 73.47 609.20 73.47Q603.73 73.47 600.85 76.54Q597.97 79.61 597.97 85.28L597.97 116.67Q597.97 122.43 600.90 125.50Q603.82 128.57 609.20 128.57M673.14 136.06L660.37 136.06L642.42 65.98L652.21 65.98L663.82 113.21Q664.98 117.72 665.79 121.90Q666.61 126.08 666.99 128.28Q667.28 126.08 668.19 121.85Q669.10 117.63 670.16 113.12L681.39 65.98L691.18 65.98L673.14 136.06M786.80 136.06L777.30 136.06L777.30 74.62L758.29 74.62L758.29 65.98L805.71 65.98L805.71 74.62L786.80 74.62L786.80 136.06M828.75 136.06L819.34 136.06L819.34 65.98L841.04 65.98Q847.47 65.98 852.27 68.52Q857.07 71.07 859.76 75.63Q862.45 80.19 862.45 86.33Q862.45 93.44 858.85 98.52Q855.25 103.61 849.30 105.72L863.41 136.06L852.94 136.06L839.60 106.78L828.75 106.78L828.75 136.06M828.75 74.43L828.75 98.33L841.04 98.33Q846.42 98.33 849.54 95.07Q852.66 91.80 852.66 86.43Q852.66 80.96 849.49 77.69Q846.32 74.43 841.04 74.43L828.75 74.43M882.51 136.06L872.82 136.06L890.96 65.98L903.54 65.98L921.58 136.06L911.89 136.06L907.47 117.82L886.93 117.82L882.51 136.06M893.94 88.92L888.85 109.95L905.55 109.95L900.56 89.02Q899.12 83.26 898.26 79.23Q897.39 75.20 897.20 73.76Q897.01 75.20 896.14 79.23Q895.28 83.26 893.94 88.92M943.18 136.06L934.26 136.06L934.26 65.98L946.54 65.98L967.47 125.12Q967.18 122.62 966.94 118.92Q966.70 115.23 966.56 111.24Q966.42 107.26 966.42 103.71L966.42 65.98L975.44 65.98L975.44 136.06L963.06 136.06L942.32 76.92Q942.51 79.42 942.70 83.02Q942.90 86.62 943.04 90.56Q943.18 94.49 943.18 97.95L943.18 136.06M1012.78 137.02Q1002.42 137.02 996.27 131.60Q990.13 126.17 990.13 116.67L999.63 116.67Q999.63 122.24 1003.18 125.40Q1006.74 128.57 1012.78 128.57Q1018.54 128.57 1021.95 125.36Q1025.36 122.14 1025.36 116.76Q1025.36 112.73 1023.15 109.71Q1020.94 106.68 1016.91 105.63L1006.54 102.84Q999.73 100.92 995.74 95.88Q991.76 90.84 991.76 83.93Q991.76 78.27 994.30 74Q996.85 69.72 1001.46 67.37Q1006.06 65.02 1012.11 65.02Q1018.26 65.02 1022.91 67.37Q1027.57 69.72 1030.16 73.95Q1032.75 78.17 1032.75 83.74L1023.34 83.74Q1023.34 79.13 1020.22 76.25Q1017.10 73.37 1012.11 73.37Q1007.12 73.37 1004.10 76.25Q1001.07 79.13 1001.07 83.74Q1001.07 87.48 1003.09 90.03Q1005.10 92.57 1008.75 93.63L1019.41 96.51Q1026.61 98.43 1030.64 103.85Q1034.67 109.28 1034.67 116.76Q1034.67 122.91 1031.98 127.47Q1029.30 132.03 1024.35 134.52Q1019.41 137.02 1012.78 137.02M1059.15 136.06L1049.65 136.06L1049.65 65.98L1072.40 65.98Q1079.12 65.98 1084.02 68.57Q1088.91 71.16 1091.60 75.82Q1094.29 80.48 1094.29 86.91Q1094.29 93.24 1091.60 97.90Q1088.91 102.56 1083.97 105.15Q1079.02 107.74 1072.40 107.74L1059.15 107.74L1059.15 136.06M1059.15 74.43L1059.15 99.29L1072.40 99.29Q1077.97 99.29 1081.23 95.88Q1084.50 92.48 1084.50 86.91Q1084.50 81.24 1081.23 77.84Q1077.97 74.43 1072.40 74.43L1059.15 74.43M1127.60 137.02QNaN 137.02 1112.43 131.45Q1106.86 125.88 1106.86 115.71L1106.86 86.24Q1106.86 76.16 1112.43 70.59QNaN 65.02 1127.60 65.02Q1137.20 65.02 1142.77 70.54Q1148.34 76.06 1148.34 86.24L1148.34 115.71Q1148.34 125.88 1142.77 131.45Q1137.20 137.02 1127.60 137.02M1127.60 128.57Q1132.98 128.57 1135.90 125.50Q1138.83 122.43 1138.83 116.67L1138.83 85.28Q1138.83 79.61 1135.95 76.54Q1133.07 73.47 1127.60 73.47Q1122.13 73.47 1119.25 76.54Q1116.37 79.61 1116.37 85.28L1116.37 116.67Q1116.37 122.43 1119.30 125.50Q1122.22 128.57 1127.60 128.57M1174.35 136.06L1164.94 136.06L1164.94 65.98L1186.64 65.98Q1193.07 65.98 1197.87 68.52Q1202.67 71.07 1205.36 75.63Q1208.05 80.19 1208.05 86.33Q1208.05 93.44 1204.45 98.52Q1200.85 103.61 1194.90 105.72L1209.01 136.06L1198.54 136.06L1185.20 106.78L1174.35 106.78L1174.35 136.06M1174.35 74.43L1174.35 98.33L1186.64 98.33Q1192.02 98.33 1195.14 95.07Q1198.26 91.80 1198.26 86.43Q1198.26 80.96 1195.09 77.69Q1191.92 74.43 1186.64 74.43L1174.35 74.43M1247.60 136.06L1238.10 136.06L1238.10 74.62L1219.09 74.62L1219.09 65.98L1266.51 65.98L1266.51 74.62L1247.60 74.62L1247.60 136.06M1289.55 136.06L1280.05 136.06L1280.05 65.98L1302.80 65.98Q1309.52 65.98 1314.42 68.57Q1319.31 71.16 1322 75.82Q1324.69 80.48 1324.69 86.91Q1324.69 93.24 1322 97.90Q1319.31 102.56 1314.37 105.15Q1309.42 107.74 1302.80 107.74L1289.55 107.74L1289.55 136.06M1289.55 74.43L1289.55 99.29L1302.80 99.29Q1308.37 99.29 1311.63 95.88Q1314.90 92.48 1314.90 86.91Q1314.90 81.24 1311.63 77.84Q1308.37 74.43 1302.80 74.43L1289.55 74.43M1359.34 136.06L1337.74 136.06L1337.74 65.98L1358 65.98Q1367.70 65.98 1373.31 70.83Q1378.93 75.68 1378.93 84.12Q1378.93 89.60 1375.52 93.87Q1372.11 98.14 1366.74 99.10L1366.74 99.39Q1370.77 99.87 1373.89 102.27Q1377.01 104.67 1378.78 108.36Q1380.56 112.06 1380.56 116.48Q1380.56 125.50 1374.85 130.78Q1369.14 136.06 1359.34 136.06M1347.06 74.33L1347.06 95.55L1357.90 95.55Q1363.28 95.55 1366.35 92.72Q1369.42 89.88 1369.42 84.99Q1369.42 80 1366.35 77.16Q1363.28 74.33 1358 74.33L1347.06 74.33M1347.06 103.61L1347.06 127.71L1358.48 127.71Q1364.34 127.71 1367.70 124.59Q1371.06 121.47 1371.06 116.09Q1371.06 110.52 1367.70 107.07Q1364.34 103.61 1358.48 103.61" fill="url(#paint2_linear_0_1)"/>
<g id="Group 1">
<rect id="Rectangle 1" x="26" y="168" width="12" height="184" rx="5" fill="url(#paint3_linear_0_1)" fill-opacity="0.9"/>
</g>
<g id="Group 1_2">
<rect id="Rectangle 2" x="26" y="38" width="12" height="119" rx="5" fill="url(#paint4_linear_0_1)" fill-opacity="0.9"/>
</g>
<ellipse id="Ellipse 1" cx="148.5" cy="573" rx="215.5" ry="214" fill="url(#paint5_linear_0_1)" fill-opacity="0.4"/>
<rect id="Rectangle 3" x="1229" y="48" width="300" height="300" rx="25" fill="#FFFBFB" fill-opacity="0.9"/>
<g id="placeholder-logo"><g transform="translate(1229,48) translate(0.0,60.0) scale(1.2000)"><g fill="#666666">
  <path d="m88.05,27.65c-3.15,4 -3.2,51.2 -0.05,54.35c2.75,2.75 71.7,3.15 74.45,0.45c2.85,-2.9 2.3,-53.85 -0.65,-55.9c-1.95,-1.35 -7.15,-1.55 -36.95,-1.55l-34.7,0l-2.1,2.65zm69.45,3.35c0.65,0 1,8.6 1,23.75l0,23.75l-33,0l-33,0l-0.25,-23c-0.15,-12.6 -0.1,-23.45 0.15,-24.1c0.35,-0.85 8.9,-1.05 32.25,-0.75c17.55,0.2 32.3,0.35 32.85,0.35z"/>
  <path d="m99.15,37.3c-6.85,7.35 4.25,17.35 11.4,10.25c1.35,-1.35 2.45,-3.65 2.45,-5.05c0,-6.45 -9.35,-9.95 -13.85,-5.2z"/>
  <path d="m135,42.5c-0.7,0.85 -5.25,5.15 -10.1,9.6l-8.85,8.1l-3.2,-3.2l-3.15,-3.15l-6.35,6.3c-5.55,5.5 -6.35,6.75 -6.35,10.05l0,3.8l28.5,0l28.5,0l0,-8.6l0,-8.55l-8.15,-7.7c-9.35,-8.85 -9.15,-8.7 -10.85,-6.65zm7.25,15.2c0.95,0.9 1.75,2.9 1.75,4.45c6.35,-5.05 4.75,-7.15 4.9,-11.55c0.95,0 0,0 0,0l-6.65,7.1z"/>
  <path d="m53.65,110.75c0.1,4.8 0.45,8.65 0.75,8.5c0.35,-0.15 1.3,-0.25 2.1,-0.25c1.1,0 1.5,-1.2 1.5,-4.75l0,-4.75l3.25,5c4.9,7.5 6.2,6.75 6.55,-3.75c0.25,-8.15 0.15,-8.75 -1.7,-8.75c-1.65,0 -2.05,0.8 -2.3,4.75l-0.3,4.75l-2.8,-4.75c-4.85,-8.25 -7.25,-6.9 -7.05,4z"/>
  <path d="m91,108.9c0,9.65 0.3,10.1 6.1,10.1c5.8,0 7.15,-2.65 1.65,-3.2l-3.25,-0.3l-0.3,-6.75c-0.25,-5.95 -0.55,-6.75 -2.25,-6.75c-1.75,0 -1.95,0.7 -1.95,6.9z"/>
  <path d="m151,102.45c0,0.25 1,2.15 2.25,4.2c1.2,2.1 2.45,5.8 2.75,8.25c0.65,5.9 4,6.95 4,1.25c0.05,-2.1 1.25,-5.85 2.95,-8.9l2.9,-5.25l-2.5,0c-1.8,0 -2.8,0.85 -3.75,3.1l-1.3,3.05l-1.25,-3.05c-1.1,-2.6 -6.05,-4.8 -6.05,-2.65z"/>
  <path d="m191,107.45c0,9.05 3.4,8.85 4.25,-0.2c0.45,-5 0.35,-5.25 -1.9,-5.25c-2.2,0 -2.35,0.4 -2.35,5.45z"/>
  <path d="m180.8,104.75c-1.3,5.35 0.65,13.6 3.45,14.35c2.3,0.6 2.75,0.4 2.75,-1.2c0,-1.05 -0.45,-1.9 -1,-1.9c-0.55,0 -1,-1.6 -1,-3.5c0,-1.95 0.45,-3.5 1,-3.5c0.55,0 1,-0.7 1,-1.5c0,-0.85 -0.45,-1.5 -1,-1.5c-0.55,0 -1,-0.7 -1,-1.5c0,-2.1 -3.65,-1.9 -4.2,0.25z"/>
  <path d="m71.55,106.55c-2.2,2.25 -2.05,9.7 0.3,11.8c4.5,4.1 10.15,0.75 10.15,-6.1c0,-4.85 -2,-7.25 -6,-7.25c-1.55,0 -3.55,0.7 -4.45,1.55zm6.25,5.8c0.25,3.05 0,3.65 -1.6,3.65c-2.3,0 -3.25,-2.65 -2.05,-5.85c1.25,-3.35 3.3,-2.1 3.65,2.2z"/>
  <path d="m105.75,106.1c-2.5,1.45 -2.45,9.95 0.1,12.25c4.3,3.9 10.15,0.35 10.15,-6.2c0,-6 -5.15,-9.05 -10.25,-6.05zm6.05,6.25c0.25,3.05 0,3.65 -1.6,3.65c-2.3,0 -3.25,-2.65 -2.05,-5.85c1.25,-3.35 3.3,-2.1 3.65,2.2z"/>
  <path d="m119.2,106.2c-3.8,3.8 -0.4,12.55 4.4,11.35c1.9,-0.45 2.45,-0.3 2.15,0.65c-0.25,0.7 -1.55,1.2 -2.85,1.1c-4.05,-0.3 -5.35,0.45 -3.85,2.25c0.85,1.05 2.6,1.45 5.35,1.25l4.1,-0.3l0.3,-8.75l0.3,-8.75l-4.35,0c-2.4,0 -4.9,0.55 -5.55,1.2zm6.6,4.45c0.4,2.85 -2.15,4.85 -3.75,2.95c-0.9,-1.1 -0.9,-2 -0.05,-3.6c1.35,-2.5 3.4,-2.15 3.8,0.65z"/>
  <path d="m133.55,106.55c-2.2,2.25 -2.05,9.7 0.3,11.8c4.5,4.1 10.15,0.75 10.15,-6.1c0,-4.85 -2,-7.25 -6,-7.25c-1.55,0 -3.55,0.7 -4.45,1.55zm6.25,5.8c0.25,3.05 0,3.65 -1.6,3.65c-2.3,0 -3.25,-2.65 -2.05,-5.85c1.25,-3.35 3.3,-2.1 3.65,2.2z"/>
  <path d="m167.65,106.85c-3.9,4.3 -0.75,13.15 4.7,13.15c2.4,0 5.65,-2.75 5.65,-4.85c0,-1.4 -2.65,-1.55 -3.5,-0.15c-0.95,1.55 -4.5,1.15 -4.5,-0.5c0,-1.1 1.1,-1.5 4,-1.5c3.15,0 4,-0.35 4,-1.8c0,-5.3 -6.85,-8.25 -10.35,-4.35z"/>
  <path d="m191,117.5c0,2.15 0.4,2.6 2.25,2.3c1.5,-0.2 2.25,-1 2.25,-2.3c0,-1.3 -0.75,-2.1 -2.25,-2.3c-1.85,-0.3 -2.25,0.15 -2.25,2.3z"/>
 </g></g></g>
</g>
<defs>
<linearGradient id="paint0_linear_0_1" x1="0" y1="198" x2="1584" y2="198" gradientUnits="userSpaceOnUse">
<stop stop-color="#3D052C"/>
<stop offset="1"/>
</linearGradient>
<linearGradient id="paint1_linear_0_1" x1="323" y1="-224" x2="323" y2="352" gradientUnits="userSpaceOnUse">
<stop stop-color="#28F6F2" stop-opacity="0.4"/>
<stop offset="1" stop-color="#17908E" stop-opacity="0.7"/>
</linearGradient>
<linearGradient id="paint2_linear_0_1" x1="148.5" y1="38" x2="148.5" y2="140" gradientUnits="userSpaceOnUse">
<stop stop-color="white"/>
<stop offset="1" stop-color="#999999"/>
</linearGradient>
<linearGradient id="paint3_linear_0_1" x1="38" y1="260" x2="26" y2="260" gradientUnits="userSpaceOnUse">
<stop stop-color="#D9D9D9"/>
<stop offset="1" stop-color="#737373"/>
</linearGradient>
<linearGradient id="paint4_linear_0_1" x1="38" y1="97.5" x2="26" y2="97.5" gradientUnits="userSpaceOnUse">
<stop stop-color="#D9D9D9"/>
<stop offset="1" stop-color="#737373"/>
</linearGradient>
<linearGradient id="paint5_linear_0_1" x1="27.5" y1="434.5" x2="148.5" y2="787" gradientUnits="userSpaceOnUse">
<stop stop-color="#2E21BC"/>
<stop offset="1" stop-color="#150F56"/>
</linearGradient>
<clipPath id="clip0_0_1">
<rect width="1584" height="396" fill="white"/>
</clipPath>
</defs>
</svg>
